<svg width="15" height="17" viewBox="0 0 15 17" fill="none" xmlns="http://www.w3.org/2000/svg">
<path opacity="0.5" d="M1.46875 14.6562C3.28125 16.4688 6.21875 16.4688 8.03125 14.6562C9.71875 12.9688 12.4688 10.2188 14.1562 8.53125C14.3125 8.375 14.3125 8.15625 14.1562 8L13.625 7.46875C13.4688 7.3125 13.25 7.3125 13.0938 7.46875C11.4062 9.15625 8.65625 11.9062 6.96875 13.5938C5.75 14.8125 3.75 14.8125 2.53125 13.5938C1.3125 12.375 1.3125 10.375 2.53125 9.15625L9.5625 2.125C10.375 1.3125 11.6875 1.3125 12.5 2.125C13.3125 2.9375 13.3125 4.25 12.5 5.0625L6.59375 10.9688C6.1875 11.375 5.53125 11.375 5.125 10.9688C4.75 10.5938 4.75 9.9375 5.125 9.53125L10.1562 4.53125C10.3125 4.375 10.3125 4.15625 10.1562 4L9.625 3.46875C9.46875 3.3125 9.25 3.3125 9.09375 3.46875L4.09375 8.46875C3.09375 9.46875 3.09375 11.0625 4.09375 12.0312C5.0625 13.0312 6.65625 13.0312 7.625 12.0312L13.5625 6.125C14.9688 4.71875 14.9688 2.46875 13.5625 1.0625C12.1562 -0.34375 9.90625 -0.34375 8.5 1.0625L1.46875 8.09375C-0.34375 9.90625 -0.34375 12.8438 1.46875 14.6562Z" fill="black"/>
</svg>
